<?xml version="1.0" encoding="UTF-8"?><svg id="uuid-3bc0fe5a-e011-46fa-b801-88d725b60b89" xmlns="http://www.w3.org/2000/svg" xmlns:xlink="http://www.w3.org/1999/xlink" viewBox="0 0 1000 1000"><defs><linearGradient id="uuid-c735a6f6-3422-4d74-9fe9-9d74882fe60f" x1="203.03" y1="914.53" x2="205.82" y2="917.57" gradientTransform="translate(-16845.67 56341.75) scale(84.83 -61)" gradientUnits="userSpaceOnUse"><stop offset="0" stop-color="#007ed5"/><stop offset="1" stop-color="#02edcf"/></linearGradient><linearGradient id="uuid-cc91a3dc-9705-4953-b54b-5dbce3921c32" x1="205.34" y1="915.4" x2="202.84" y2="911.19" gradientTransform="translate(-15522.07 49645.39) scale(78.32 -53.7)" gradientUnits="userSpaceOnUse"><stop offset="0" stop-color="#7461f9"/><stop offset=".99" stop-color="#80c7ff"/><stop offset="1" stop-color="#ffffd2"/></linearGradient></defs><g id="uuid-028c6053-8c15-431a-ac25-fb67b102deeb"><path d="m499.82,325.36c93.36,0,169.63,73.3,174.4,165.48-.43,7.23-4.23,13.55-9.84,17.43l-52.39,29.06c-9.5,4.06-24.03,1.75-33.38-5.57l-18.1-14.15,70.47-39.07c-10.26-63.18-65.08-111.43-131.15-111.43-69.59,0-126.69,53.52-132.41,121.62-1.36,10.23-10.12,18.12-20.73,18.12-11.54,0-20.91-9.36-20.91-20.91v-.49s0-.03,0-.03v-.02c7.42-89.61,82.5-160.06,174.03-160.06Zm-23.29,248.76l87.6-48.56-18.1-14.16c-9.96-7.78-25.78-9.9-35.15-4.7l-56.28,31.19c-4.88,3.91-8.01,9.93-8.01,16.67,0,11.79,9.56,21.35,21.35,21.35,3.06,0,5.96-.64,8.59-1.8h0Z" style="fill:url(#uuid-c735a6f6-3422-4d74-9fe9-9d74882fe60f); stroke-width:0px;"/><path d="m656.65,576.88c-28.44,57.9-87.98,97.76-156.83,97.76-73.75,0-136.84-45.74-162.44-110.4l.06-.03c-1.41-2.99-2.2-6.33-2.2-9.86,0-8.07,4.13-15.18,10.38-19.33l4.29-2.38,137.73-76.41c2.69-1.38,5.74-2.15,8.98-2.15,10.92,0,19.77,8.85,19.77,19.77,0,6.24-2.89,11.81-7.4,15.43l-80.07,44.42-38.18,21.18c-3.18,1.76-6.6,3.09-10.08,3.99,21.71,43.85,66.92,74.01,119.15,74.01s96.12-29.29,118.18-72.11c4.62-6.46,12.66-10.09,21.02-8.69,11.7,1.96,19.59,13.03,17.63,24.73v.06h0Z" style="fill:url(#uuid-cc91a3dc-9705-4953-b54b-5dbce3921c32); stroke-width:0px;"/></g></svg>