<?xml version="1.0" encoding="UTF-8"?><svg id="uuid-86f748c3-0e3f-4d8e-b7ef-c60a268fc89d" xmlns="http://www.w3.org/2000/svg" viewBox="0 0 148.96 31.74"><g id="uuid-7a82ff8a-f0ea-4268-8f5b-8a6cab65c977"><g id="uuid-c5d89cab-1a1f-4507-ac52-e50b07454846"><g id="uuid-1ef3d355-fcc0-4631-8c82-08b6991444c3"><path d="M15.82,0c8.48,0,15.42,6.66,15.85,15.04-.04.66-.38,1.23-.89,1.58l-4.76,2.64c-.86.37-2.18.16-3.03-.51l-1.65-1.29,6.41-3.55c-.93-5.74-5.91-10.13-11.92-10.13-6.32,0-11.51,4.87-12.03,11.05-.12.93-.92,1.65-1.88,1.65-1.05,0-1.9-.85-1.9-1.9v-.04h0C.67,6.4,7.5,0,15.82,0h0ZM13.7,22.61l7.96-4.41-1.65-1.29c-.9-.71-2.34-.9-3.19-.43l-5.12,2.83c-.44.36-.73.9-.73,1.52,0,1.07.87,1.94,1.94,1.94.28,0,.54-.06.78-.16Z" style="fill:#fff; stroke-width:0px;"/><path d="M30.07,22.86c-2.58,5.26-8,8.88-14.25,8.88-6.7,0-12.44-4.16-14.76-10.03h0c-.13-.28-.2-.58-.2-.9,0-.73.37-1.38.94-1.76l.39-.21,12.52-6.95c.25-.12.52-.2.82-.2.99,0,1.8.8,1.8,1.8,0,.57-.26,1.07-.67,1.4l-7.28,4.04-3.47,1.93c-.29.16-.6.28-.91.36,1.97,3.98,6.08,6.73,10.83,6.73s8.74-2.66,10.74-6.55c.42-.59,1.15-.92,1.91-.79,1.06.18,1.78,1.18,1.6,2.25h0Z" style="fill:#fff; stroke-width:0px;"/><path d="M38.44,10.8c0-.73.21-1.42.63-2.05.42-.63,1-1.13,1.72-1.5.72-.37,1.51-.55,2.35-.55h10.46c.87,0,1.66.18,2.38.55.72.37,1.3.87,1.72,1.5.42.63.63,1.32.63,2.05v9.86c0,.74-.21,1.42-.63,2.06-.42.64-1,1.14-1.72,1.51-.72.37-1.52.55-2.38.55h-10.46c-.84,0-1.63-.19-2.35-.56-.72-.38-1.3-.88-1.72-1.51-.42-.63-.63-1.31-.63-2.05v-9.86ZM51.08,21.95c.66,0,1.23-.2,1.7-.62.47-.41.71-.91.71-1.48v-8.2c0-.6-.24-1.1-.71-1.51-.47-.41-1.04-.62-1.7-.62h-5.37c-.68,0-1.26.21-1.73.62-.47.41-.71.92-.71,1.51v8.2c0,.58.24,1.07.71,1.48.47.41,1.05.62,1.73.62h5.37ZM69.64,9.52c-.68,0-1.32.15-1.92.45-.59.3-1.07.71-1.42,1.22-.35.52-.53,1.08-.53,1.7v1.45h15.08v2.81h-15.08v1.45c0,.61.18,1.18.53,1.7.35.52.82.92,1.42,1.22.59.3,1.23.45,1.92.45h11.22v2.84h-12.82c-1.29,0-2.47-.28-3.56-.84-1.09-.56-1.95-1.31-2.58-2.26-.63-.95-.95-1.98-.95-3.1v-5.71c0-1.12.32-2.15.95-3.1.63-.95,1.49-1.7,2.58-2.25,1.09-.55,2.27-.83,3.56-.83h12.82v2.81h-11.22ZM100.56,24.79l-6.64-13.72-5.31,10.91h5.94l1.51,2.81h-13.63l8.81-18.08h5.34l8.81,18.08h-4.83ZM120.63,14.22c1.08,0,2.09.24,3.02.71.92.47,1.66,1.11,2.2,1.92.54.81.81,1.69.81,2.66s-.27,1.85-.81,2.65c-.54.81-1.28,1.45-2.2,1.92-.92.47-1.93.71-3.02.71h-13.03v-2.84h11.4c.78,0,1.45-.24,2-.71.55-.47.83-1.05.83-1.73s-.28-1.26-.83-1.73c-.55-.47-1.22-.71-2-.71h-6.3c-1.09,0-2.08-.23-2.99-.7-.9-.46-1.62-1.1-2.16-1.89-.53-.8-.8-1.66-.8-2.59s.27-1.81.8-2.6c.53-.79,1.25-1.42,2.16-1.88.91-.46,1.9-.7,2.99-.7h12.76v2.81h-11.16c-.75,0-1.38.23-1.92.7-.53.46-.8,1.02-.8,1.67s.27,1.2.8,1.66c.53.46,1.17.68,1.92.68h6.33ZM137.74,9.52c-.68,0-1.32.15-1.92.45-.59.3-1.06.71-1.42,1.22-.35.52-.53,1.08-.53,1.7v1.45h15.08v2.81h-15.08v1.45c0,.61.18,1.18.53,1.7.35.52.82.92,1.42,1.22.59.3,1.23.45,1.92.45h11.22v2.84h-12.82c-1.29,0-2.47-.28-3.56-.84-1.09-.56-1.95-1.31-2.58-2.26-.63-.95-.95-1.98-.95-3.1v-5.71c0-1.12.32-2.15.95-3.1.63-.95,1.49-1.7,2.58-2.25,1.09-.55,2.27-.83,3.56-.83h12.82v2.81h-11.22Z" style="fill:#fff; stroke-width:0px;"/></g></g></g></svg>