<?xml version="1.0" encoding="utf-8"?>
<!-- Generator: Adobe Illustrator 25.4.1, SVG Export Plug-In . SVG Version: 6.00 Build 0)  -->
<svg version="1.1" id="图层_1" xmlns="http://www.w3.org/2000/svg" xmlns:xlink="http://www.w3.org/1999/xlink" x="0px" y="0px"
	 viewBox="0 0 500 500" style="enable-background:new 0 0 500 500;" xml:space="preserve">
<style type="text/css">
	.st0{fill:url(#SVGID_1_);}
	.st1{fill:url(#SVGID_00000011712269438868017290000015354676851216587704_);}
	.st2{fill:url(#SVGID_00000088820583451427574110000013168712946771895690_);}
</style>
<g id="_2661355123840">
	
		<linearGradient id="SVGID_1_" gradientUnits="userSpaceOnUse" x1="-46.7582" y1="674.525" x2="-45.3232" y2="676.0892" gradientTransform="matrix(31.6678 0 0 -22.7721 1583.3928 15620.4414)">
		<stop  offset="0" style="stop-color:#007ED5"/>
		<stop  offset="1" style="stop-color:#02EDCF"/>
	</linearGradient>
	<path class="st0" d="M125.9,216.4c17.9,0,32.6,14.1,33.5,31.8c-0.1,1.4-0.8,2.6-1.9,3.4l-10.1,5.6c-1.8,0.8-4.6,0.3-6.4-1.1
		l-3.5-2.7l13.5-7.5c-2-12.1-12.5-21.4-25.2-21.4c-13.4,0-24.4,10.3-25.5,23.4c-0.3,2-1.9,3.5-4,3.5c-2.2,0-4-1.8-4-4l0-0.1v0v0
		C93.9,230,108.3,216.4,125.9,216.4L125.9,216.4z M121.4,264.2l16.8-9.3l-3.5-2.7c-1.9-1.5-5-1.9-6.8-0.9l-10.8,6
		c-0.9,0.8-1.5,1.9-1.5,3.2c0,2.3,1.8,4.1,4.1,4.1C120.4,264.6,120.9,264.5,121.4,264.2z"/>
	
		<linearGradient id="SVGID_00000093895931328709363320000004507716384771548835_" gradientUnits="userSpaceOnUse" x1="-45.5691" y1="676.1915" x2="-46.8609" y2="674.0232" gradientTransform="matrix(29.2379 0 0 -20.0449 1470.1139 13802.3242)">
		<stop  offset="0" style="stop-color:#7461F9"/>
		<stop  offset="0.9882" style="stop-color:#80C7FF"/>
		<stop  offset="1" style="stop-color:#FFFFD2"/>
	</linearGradient>
	<path style="fill:url(#SVGID_00000093895931328709363320000004507716384771548835_);" d="M156.1,264.8
		c-5.5,11.1-16.9,18.8-30.2,18.8c-14.2,0-26.3-8.8-31.2-21.2l0,0c-0.3-0.6-0.4-1.2-0.4-1.9c0-1.5,0.8-2.9,2-3.7l0.8-0.5l26.5-14.7
		c0.5-0.3,1.1-0.4,1.7-0.4c2.1,0,3.8,1.7,3.8,3.8c0,1.2-0.6,2.3-1.4,3l-15.4,8.5l-7.3,4.1c-0.6,0.3-1.3,0.6-1.9,0.8
		c4.2,8.4,12.9,14.2,22.9,14.2c9.9,0,18.5-5.6,22.7-13.9c0.9-1.2,2.4-1.9,4-1.7C154.9,260.4,156.4,262.5,156.1,264.8L156.1,264.8
		L156.1,264.8z"/>
	
		<linearGradient id="SVGID_00000002350583823690583420000008852818858984029071_" gradientUnits="userSpaceOnUse" x1="-45.1209" y1="677.0537" x2="-46.4122" y2="674.8862" gradientTransform="matrix(110.5208 0 0 -18.0843 5327.4937 12481.1826)">
		<stop  offset="0" style="stop-color:#7461F9"/>
		<stop  offset="0.9882" style="stop-color:#80C7FF"/>
		<stop  offset="1" style="stop-color:#FFFFD2"/>
	</linearGradient>
	<path style="fill:url(#SVGID_00000002350583823690583420000008852818858984029071_);" d="M173.8,239.3c0-1.6,0.4-3,1.3-4.3
		c0.9-1.3,2.1-2.4,3.6-3.2c1.5-0.8,3.2-1.2,5-1.2h22.1c1.8,0,3.5,0.4,5,1.2c1.5,0.8,2.7,1.8,3.6,3.2c0.9,1.3,1.3,2.8,1.3,4.3v20.9
		c0,1.6-0.4,3-1.3,4.4c-0.9,1.4-2.1,2.4-3.6,3.2c-1.5,0.8-3.2,1.2-5,1.2h-22.1c-1.8,0-3.4-0.4-5-1.2c-1.5-0.8-2.7-1.9-3.6-3.2
		c-0.9-1.3-1.3-2.8-1.3-4.3V239.3z M200.5,262.9c1.4,0,2.6-0.4,3.6-1.3c1-0.9,1.5-1.9,1.5-3.1v-17.3c0-1.3-0.5-2.3-1.5-3.2
		c-1-0.9-2.2-1.3-3.6-1.3h-11.4c-1.4,0-2.7,0.4-3.7,1.3c-1,0.9-1.5,1.9-1.5,3.2v17.3c0,1.2,0.5,2.3,1.5,3.1c1,0.9,2.2,1.3,3.7,1.3
		H200.5z M239.8,236.6c-1.4,0-2.8,0.3-4.1,0.9s-2.3,1.5-3,2.6c-0.7,1.1-1.1,2.3-1.1,3.6v3.1h31.9v5.9h-31.9v3.1
		c0,1.3,0.4,2.5,1.1,3.6c0.7,1.1,1.7,2,3,2.6c1.3,0.6,2.6,0.9,4.1,0.9h23.7v6h-27.1c-2.7,0-5.2-0.6-7.5-1.8
		c-2.3-1.2-4.1-2.8-5.5-4.8c-1.3-2-2-4.2-2-6.6v-12.1c0-2.4,0.7-4.6,2-6.6c1.3-2,3.2-3.6,5.5-4.8c2.3-1.2,4.8-1.8,7.5-1.8h27.1v5.9
		H239.8L239.8,236.6z M305.2,268.9l-14-29l-11.2,23.1h12.6l3.2,5.9h-28.8l18.6-38.3h11.3l18.6,38.3H305.2z M347.6,246.5
		c2.3,0,4.4,0.5,6.4,1.5c2,1,3.5,2.4,4.7,4.1c1.1,1.7,1.7,3.6,1.7,5.6c0,2-0.6,3.9-1.7,5.6c-1.1,1.7-2.7,3.1-4.7,4.1
		c-2,1-4.1,1.5-6.4,1.5h-27.6v-6h24.1c1.7,0,3.1-0.5,4.2-1.5c1.2-1,1.8-2.2,1.8-3.7s-0.6-2.7-1.8-3.7c-1.2-1-2.6-1.5-4.2-1.5h-13.3
		c-2.3,0-4.4-0.5-6.3-1.5c-1.9-1-3.4-2.3-4.6-4c-1.1-1.7-1.7-3.5-1.7-5.5c0-2,0.6-3.8,1.7-5.5c1.1-1.7,2.6-3,4.6-4
		c1.9-1,4-1.5,6.3-1.5h27v5.9h-23.6c-1.6,0-2.9,0.5-4.1,1.5c-1.1,1-1.7,2.2-1.7,3.5c0,1.4,0.6,2.5,1.7,3.5c1.1,1,2.5,1.4,4.1,1.4
		H347.6L347.6,246.5z M383.8,236.6c-1.4,0-2.8,0.3-4.1,0.9c-1.3,0.6-2.3,1.5-3,2.6c-0.7,1.1-1.1,2.3-1.1,3.6v3.1h31.9v5.9h-31.9v3.1
		c0,1.3,0.4,2.5,1.1,3.6c0.7,1.1,1.7,2,3,2.6c1.3,0.6,2.6,0.9,4.1,0.9h23.7v6h-27.1c-2.7,0-5.2-0.6-7.5-1.8
		c-2.3-1.2-4.1-2.8-5.5-4.8c-1.3-2-2-4.2-2-6.6v-12.1c0-2.4,0.7-4.6,2-6.6c1.3-2,3.2-3.6,5.5-4.8c2.3-1.2,4.8-1.8,7.5-1.8h27.1v5.9
		H383.8L383.8,236.6z"/>
</g>
</svg>
