<?xml version="1.0" encoding="utf-8"?>
<!-- Generator: Adobe Illustrator 25.4.1, SVG Export Plug-In . SVG Version: 6.00 Build 0)  -->
<svg version="1.1" id="图层_1" xmlns="http://www.w3.org/2000/svg" xmlns:xlink="http://www.w3.org/1999/xlink" x="0px" y="0px"
	 viewBox="0 0 500 500" style="enable-background:new 0 0 500 500;" xml:space="preserve">
<style type="text/css">
	.st0{fill:url(#SVGID_1_);}
	.st1{fill:url(#SVGID_00000179624294236164591120000012955094485360000647_);}
	.st2{fill:url(#SVGID_00000034802748884307613840000017849294324913997219_);}
</style>
<g id="_2661355133776">
	
		<linearGradient id="SVGID_1_" gradientUnits="userSpaceOnUse" x1="-46.2629" y1="665.4518" x2="-44.9191" y2="666.9165" gradientTransform="matrix(84.8333 0 0 -61.0027 4112.6533 40841.0781)">
		<stop  offset="0" style="stop-color:#007ED5"/>
		<stop  offset="1" style="stop-color:#02EDCF"/>
	</linearGradient>
	<path class="st0" d="M246.5,137.1c45,0,81.7,35.3,84,79.7c-0.2,3.5-2,6.5-4.7,8.4l-25.2,14c-4.6,2-11.6,0.8-16.1-2.7l-8.7-6.8
		l33.9-18.8c-4.9-30.4-31.4-53.7-63.2-53.7c-33.5,0-61,25.8-63.8,58.6c-0.7,4.9-4.9,8.7-10,8.7c-5.6,0-10.1-4.5-10.1-10.1l0-0.2v0v0
		C166.2,171.1,202.4,137.1,246.5,137.1z M235.3,257l42.2-23.4l-8.7-6.8c-4.8-3.7-12.4-4.8-16.9-2.3l-27.1,15c-2.4,1.9-3.9,4.8-3.9,8
		c0,5.7,4.6,10.3,10.3,10.3C232.6,257.8,234,257.5,235.3,257L235.3,257z"/>
	
		<linearGradient id="SVGID_00000015319771896989215370000016518788212836487848_" gradientUnits="userSpaceOnUse" x1="-45.105" y1="665.841" x2="-46.3121" y2="663.8149" gradientTransform="matrix(78.3237 0 0 -53.6978 3808.8577 35970.9414)">
		<stop  offset="0" style="stop-color:#7461F9"/>
		<stop  offset="0.9882" style="stop-color:#80C7FF"/>
		<stop  offset="1" style="stop-color:#FFFFD2"/>
	</linearGradient>
	<path style="fill:url(#SVGID_00000015319771896989215370000016518788212836487848_);" d="M322.1,258.3
		c-13.7,27.9-42.4,47.1-75.5,47.1c-35.5,0-65.9-22-78.3-53.2l0,0c-0.7-1.4-1.1-3.1-1.1-4.7c0-3.9,2-7.3,5-9.3l2.1-1.1l66.3-36.8
		c1.3-0.7,2.8-1,4.3-1c5.3,0,9.5,4.3,9.5,9.5c0,3-1.4,5.7-3.6,7.4l-38.6,21.4L194,247.7c-1.5,0.9-3.2,1.5-4.9,1.9
		c10.5,21.1,32.2,35.7,57.4,35.7c24.8,0,46.3-14.1,56.9-34.7c2.2-3.1,6.1-4.9,10.1-4.2C319.2,247.3,323,252.6,322.1,258.3
		L322.1,258.3L322.1,258.3z"/>
	
		<linearGradient id="SVGID_00000168081694169164683320000012314456689441980595_" gradientUnits="userSpaceOnUse" x1="11556.4375" y1="-17213.6133" x2="4878.3965" y2="-18749.5176" gradientTransform="matrix(2.830000e-02 0 0 -2.830000e-02 -46.0568 -151.5159)">
		<stop  offset="0" style="stop-color:#7461F9"/>
		<stop  offset="0.9882" style="stop-color:#80C7FF"/>
		<stop  offset="1" style="stop-color:#FFFFD2"/>
	</linearGradient>
	<path style="fill:url(#SVGID_00000168081694169164683320000012314456689441980595_);" d="M120.3,330.1c0-1.7,0.5-3.3,1.5-4.8
		c1-1.5,2.3-2.7,4-3.5c1.7-0.9,3.5-1.3,5.5-1.3h24.6c2,0,3.9,0.4,5.6,1.3c1.7,0.9,3,2,4,3.5c1,1.5,1.5,3.1,1.5,4.8v23.1
		c0,1.7-0.5,3.3-1.5,4.8c-1,1.5-2.3,2.7-4,3.5c-1.7,0.9-3.6,1.3-5.6,1.3h-24.6c-2,0-3.8-0.4-5.5-1.3c-1.7-0.9-3-2.1-4-3.5
		c-1-1.5-1.5-3.1-1.5-4.8V330.1z M150,356.2c1.6,0,2.9-0.5,4-1.4c1.1-1,1.7-2.1,1.7-3.5V332c0-1.4-0.6-2.6-1.7-3.5
		c-1.1-1-2.4-1.4-4-1.4h-12.6c-1.6,0-3,0.5-4.1,1.4c-1.1,1-1.7,2.1-1.7,3.5v19.2c0,1.4,0.6,2.5,1.7,3.5c1.1,1,2.5,1.4,4.1,1.4H150z
		 M193.5,327c-1.6,0-3.1,0.3-4.5,1c-1.4,0.7-2.5,1.7-3.3,2.9c-0.8,1.2-1.2,2.5-1.2,4v3.4h35.4v6.6h-35.4v3.4c0,1.4,0.4,2.8,1.2,4
		c0.8,1.2,1.9,2.2,3.3,2.9c1.4,0.7,2.9,1,4.5,1h26.3v6.7h-30.1c-3,0-5.8-0.7-8.4-2c-2.5-1.3-4.6-3.1-6.1-5.3
		c-1.5-2.2-2.2-4.6-2.2-7.3v-13.4c0-2.6,0.7-5.1,2.2-7.3c1.5-2.2,3.5-4,6.1-5.3c2.5-1.3,5.3-1.9,8.4-1.9h30.1v6.6L193.5,327
		L193.5,327z M266.1,362.9l-15.6-32.2l-12.5,25.6H252l3.5,6.6h-32l20.7-42.4h12.5l20.7,42.4H266.1z M313.2,338.1
		c2.5,0,4.9,0.6,7.1,1.7c2.2,1.1,3.9,2.6,5.2,4.5c1.3,1.9,1.9,4,1.9,6.2c0,2.3-0.6,4.3-1.9,6.2c-1.3,1.9-3,3.4-5.2,4.5
		c-2.2,1.1-4.5,1.7-7.1,1.7h-30.6v-6.7h26.8c1.8,0,3.4-0.6,4.7-1.7c1.3-1.1,1.9-2.5,1.9-4.1c0-1.6-0.6-3-1.9-4.1
		c-1.3-1.1-2.9-1.7-4.7-1.7h-14.8c-2.5,0-4.9-0.5-7-1.6c-2.1-1.1-3.8-2.6-5.1-4.4c-1.3-1.9-1.9-3.9-1.9-6.1c0-2.2,0.6-4.3,1.9-6.1
		c1.3-1.9,2.9-3.3,5.1-4.4c2.1-1.1,4.5-1.6,7-1.6h29.9v6.6h-26.2c-1.7,0-3.2,0.5-4.5,1.6c-1.2,1.1-1.9,2.4-1.9,3.9
		c0,1.5,0.6,2.8,1.9,3.9c1.3,1.1,2.7,1.6,4.5,1.6H313.2L313.2,338.1z M353.4,327c-1.6,0-3.1,0.3-4.5,1c-1.4,0.7-2.5,1.7-3.3,2.9
		c-0.8,1.2-1.2,2.5-1.2,4v3.4h35.4v6.6h-35.4v3.4c0,1.4,0.4,2.8,1.2,4c0.8,1.2,1.9,2.2,3.3,2.9c1.4,0.7,2.9,1,4.5,1h26.3v6.7h-30.1
		c-3,0-5.8-0.7-8.4-2c-2.5-1.3-4.6-3.1-6.1-5.3c-1.5-2.2-2.2-4.6-2.2-7.3v-13.4c0-2.6,0.7-5.1,2.2-7.3c1.5-2.2,3.5-4,6.1-5.3
		c2.5-1.3,5.3-1.9,8.4-1.9h30.1v6.6L353.4,327L353.4,327z"/>
</g>
</svg>
